<svg width="9" height="14" viewBox="0 0 9 14" fill="none" xmlns="http://www.w3.org/2000/svg">
<path fill-rule="evenodd" clip-rule="evenodd" d="M7.90589 5.93771C8.10208 6.12524 8.2123 6.37955 8.2123 6.64471C8.2123 6.90988 8.10208 7.16418 7.90589 7.35171L1.98578 13.0087C1.88924 13.1042 1.77376 13.1804 1.64609 13.2328C1.51841 13.2852 1.38108 13.3128 1.24213 13.314C1.10317 13.3151 0.965369 13.2898 0.836757 13.2395C0.708145 13.1893 0.591299 13.115 0.493039 13.0211C0.39478 12.9272 0.317073 12.8156 0.264453 12.6927C0.211834 12.5698 0.185355 12.4381 0.186563 12.3053C0.18777 12.1725 0.21664 12.0413 0.271486 11.9193C0.326333 11.7973 0.406058 11.687 0.506011 11.5947L5.68624 6.64471L0.506011 1.69471C0.31538 1.50611 0.209898 1.25351 0.212282 0.99131C0.214667 0.729113 0.324727 0.478301 0.518759 0.292893C0.71279 0.107485 0.975269 0.00231622 1.24966 3.78026e-05C1.52405 -0.00224062 1.7884 0.0985537 1.98578 0.280712L7.90589 5.93771Z" fill="white"/>
</svg>
